# xmcd
# 
# Track frame offsets:
#     150
#     17472
#     34459
#     53301
#     73771
#     92435
#     108195
#     124307
#     138482
#     155218
#     171173
#     191833
#     205798
#     224822
#     240095
#     258119
#     275206
#     293760
#     309490
#     327407
# 
# Disc length: 4551
# 
# Revision: 6
# Processed by: cddbd v1.5.2PL0 Copyright (c) Steve Scherf et al.
# Submitted via: fre:ac v1.0.27
# 
DISCID=2a11c514
DTITLE=The Rolling Stones - Grrr!
DYEAR=2012
DGENRE=Rock and Roll
TTITLE0=Brown Sugar
TTITLE1=Tumbling Dice
TTITLE2=It's Only Rock 'N' Roll
TTITLE3=Angie
TTITLE4=Fool To Cry
TTITLE5=Beast Of Burden
TTITLE6=Miss You
TTITLE7=Respectable
TTITLE8=Emotional Rescue
TTITLE9=Start Me Up
TTITLE10=Waiting On A Friend
TTITLE11=Happy
TTITLE12=Undercover Of The Night
TTITLE13=Harlem Shuffle
TTITLE14=Mixed Emotions
TTITLE15=Love Is Strong
TTITLE16=Anybody Seen My Baby?
TTITLE17=Don't Stop
TTITLE18=Doom And Gloom
TTITLE19=One More Shot
EXTD=
EXTT0=
EXTT1=
EXTT2=
EXTT3=
EXTT4=
EXTT5=
EXTT6=
EXTT7=
EXTT8=
EXTT9=
EXTT10=
EXTT11=
EXTT12=
EXTT13=
EXTT14=
EXTT15=
EXTT16=
EXTT17=
EXTT18=
EXTT19=
PLAYORDER=
